<?xml version="1.0" encoding="utf-8"?>
<!-- Generator: Adobe Illustrator 26.0.3, SVG Export Plug-In . SVG Version: 6.00 Build 0)  -->
<svg version="1.0" id="katman_1" xmlns="http://www.w3.org/2000/svg" xmlns:xlink="http://www.w3.org/1999/xlink" x="0px" y="0px"
	 viewBox="0 0 800 600" style="enable-background:new 0 0 800 600;" xml:space="preserve">
<style type="text/css">
	.st0{fill-rule:evenodd;clip-rule:evenodd;fill:#20B1EA;}
</style>
<path class="st0" d="M616.2,339.1c6.7,0,10.2-6.3,11.6-14.3h36.6c-4.6,55.7-81.6,56.1-88.3,12v28.7h-53.1v-29.1
	c-4.6,28.4-20.9,32.3-28,32.3c-6,0-20.6-4.9-26-19.9l0.5,16.3c0.1,10.1,6.6,16.5,13.4,17.4v23.5l-61.9,0v-23.6
	c5.2-0.1,13.5-5.3,13.6-16.6v-42.7c-1.9,10.7-9.8,45.4-47.9,45.4c-37.7,0-46.3-36.6-47.9-42c-7.1,39.9-33.6,42.1-45.2,41.9
	c-20.9-0.3-33.5-14.7-33.8-15c-12.6-12.8-15-32.1-14.5-53c0-4.2,1.1-12.4,1.5-16.4c-13.5,14.5-26.1,12.7-41,13.3l-12.5,0v23.9
	c0,9.6,3.5,15.3,14.2,15.4v28.7h-73.6v-28.1c10.7-0.1,14.4-6.3,14.4-15.9v-85.1c0-2-0.5-15.2-14.3-15.3V193h79.4
	c15,0,25.6,4.6,32.8,10.2c13.2,10.4,15.9,28.4,17,41.6c20.2-17.6,68.1-21.5,76.2,31.1c8.7-40.1,38.2-43.1,45.1-43.2
	c12.4,0,33.6,7.5,40.5,27.8v-25h43.5v16.1c3.2-12.1,13.9-18.7,24.8-18.8c10.5-0.1,32,11.6,37.5,55.9v-59c0-8.5-5.3-12.9-13.8-12.9
	l0-23.5h50.6v95.5c4.6-42.3,28.2-55.8,48.1-55.8c20.2,0,34.5,11.2,41.8,25.6c9.4,18.4,8.7,37.9,8.2,50.5l-61.6,0
	c-0.2,2.4,0,6.5,0.2,10.2C604.6,329.7,608,339.2,616.2,339.1z M294.6,339.1c6.7,0,10.2-6.2,11.6-14.2l32.1,0c-1.6-8-1.8-9.7-2-15.9
	l-54,0c-0.2,2.4,0,6.5,0.2,10.2C283,329.7,286.4,339.2,294.6,339.1z M373.2,301c0,21.2,3.8,38.3,13.4,38.4
	c9.8,0.1,13.4-17.2,13.4-38.4c0-21.2-3.8-38.3-13.4-38.4C377.3,262.4,373.2,279.8,373.2,301z M294.4,261.8c-8.2,0-11.9,10-12.4,20.5
	c-0.2,3.6-0.2,3.7,0,6.4h24.3c0.2-2.7,0.2-2.8,0-6.4C305.8,271.8,302.6,261.8,294.4,261.8L294.4,261.8z M616,262.6
	c-8.2,0-11.6,9.2-12.2,19.7c-0.2,3.6-0.2,3.7,0,6.4h24.3c0.2-2.7,0.2-2.8,0-6.4C627.6,271.8,624.2,262.6,616,262.6z M470.6,320.3
	c0,10.7,2.6,18.8,10.1,18.8c8.4,0,13.4-11.3,13.4-38c0-29.3-4.5-39.3-12.4-39.6c-7.6-0.3-11.5,6.1-11.1,19.5
	C470.6,281,470.6,320.3,470.6,320.3z M193.3,265.5h10.3c9.3-0.3,12.6-5.9,12.6-20.2c0-13-4.6-19.7-12.6-19.7h-10.3V265.5z"/>
</svg>
